<?xml version="1.0" encoding="utf-8"?>
<!-- Generator: Adobe Illustrator 16.0.0, SVG Export Plug-In . SVG Version: 6.00 Build 0)  -->
<!DOCTYPE svg PUBLIC "-//W3C//DTD SVG 1.1//EN" "http://www.w3.org/Graphics/SVG/1.1/DTD/svg11.dtd">
<svg version="1.1" id="图层_1" xmlns="http://www.w3.org/2000/svg" xmlns:xlink="http://www.w3.org/1999/xlink" x="0px" y="0px"
	 width="438.945px" height="254.152px" viewBox="0 0 438.945 254.152" enable-background="new 0 0 438.945 254.152"
	 xml:space="preserve">
<g>
	<path fill="#121706" d="M89.554,128.478H79.7L46.547,49.257h-1.642v107.999h15.909c2.053,0,3.522,0.414,4.414,1.239
		c0.889,0.827,1.334,1.924,1.334,3.287c0,1.294-0.446,2.371-1.334,3.233c-0.891,0.862-2.361,1.293-4.414,1.293H28.996
		c-2.053,0-3.524-0.431-4.414-1.293s-1.334-1.939-1.334-3.233c0-1.363,0.444-2.46,1.334-3.287c0.889-0.825,2.36-1.239,4.414-1.239
		h7.287V49.257h-5.44c-2.053,0-3.524-0.413-4.413-1.239c-0.891-0.825-1.334-1.922-1.334-3.288c0-1.363,0.443-2.46,1.334-3.287
		c0.889-0.824,2.36-1.239,4.413-1.239h21.145l32.64,78.035l32.126-78.035h21.145c2.12,0,3.626,0.415,4.516,1.239
		c0.89,0.827,1.334,1.924,1.334,3.287c0,1.366-0.446,2.462-1.334,3.288c-0.89,0.827-2.396,1.239-4.516,1.239h-5.337v107.999h7.185
		c2.12,0,3.626,0.414,4.517,1.239c0.889,0.827,1.334,1.924,1.334,3.287c0,1.294-0.446,2.371-1.334,3.233
		c-0.891,0.862-2.396,1.293-4.517,1.293h-31.716c-2.053,0-3.541-0.431-4.465-1.293s-1.386-1.939-1.386-3.233
		c0-1.363,0.443-2.46,1.334-3.287c0.888-0.825,2.394-1.239,4.516-1.239h15.909V49.257h-1.849L89.554,128.478z"/>
	<path fill="#121706" d="M189.218,105.412v51.844h29.562c2.053,0,3.523,0.414,4.413,1.239c0.889,0.827,1.335,1.924,1.335,3.287
		c0,1.294-0.446,2.371-1.335,3.233c-0.89,0.862-2.36,1.293-4.413,1.293h-49.781c-2.053,0-3.524-0.431-4.414-1.293
		s-1.334-1.939-1.334-3.233c0-1.363,0.444-2.46,1.334-3.287c0.889-0.825,2.361-1.239,4.414-1.239h11.599V49.257h-11.599
		c-2.053,0-3.524-0.413-4.414-1.239c-0.89-0.825-1.334-1.922-1.334-3.288c0-1.363,0.514-2.514,1.54-3.448
		c0.752-0.719,2.156-1.078,4.208-1.078h94.943v31.148c0,2.156-0.411,3.702-1.232,4.635c-0.82,0.936-1.848,1.401-3.079,1.401
		c-1.301,0-2.359-0.467-3.182-1.401c-0.821-0.933-1.231-2.479-1.231-4.635V49.257h-65.997v47.102h30.895V86.119
		c0-2.155,0.411-3.7,1.231-4.635c0.82-0.933,1.882-1.4,3.183-1.4c1.23,0,2.258,0.468,3.079,1.4c0.821,0.936,1.23,2.479,1.23,4.635
		v29.532c0,2.156-0.409,3.702-1.23,4.636c-0.821,0.935-1.849,1.4-3.079,1.4c-1.301,0-2.361-0.467-3.183-1.4
		c-0.82-0.934-1.231-2.479-1.231-4.636v-10.238L189.218,105.412L189.218,105.412z"/>
</g>
<g>
	<path fill="#121706" d="M293.217,166.31l-4.902,0.05l-8.724-26.735l-8.676,26.735l-4.902-0.05l-8.204-38.669h-1.935
		c-0.941,0-1.619-0.197-2.026-0.594c-0.408-0.397-0.612-0.907-0.612-1.535c0-0.594,0.204-1.089,0.612-1.485
		c0.407-0.396,1.085-0.594,2.026-0.594h10.893c0.942,0,1.619,0.198,2.026,0.594c0.408,0.396,0.613,0.908,0.613,1.535
		c0,0.595-0.205,1.089-0.613,1.485c-0.407,0.396-1.084,0.594-2.026,0.594h-5.045l7.024,32.977l8.439-26.342h4.716l8.675,26.342
		l6.742-32.977h-4.997c-0.943,0-1.627-0.197-2.052-0.594c-0.424-0.396-0.637-0.907-0.637-1.535c0-0.594,0.204-1.089,0.612-1.485
		c0.408-0.396,1.102-0.594,2.075-0.594h10.844c0.976,0,1.666,0.198,2.075,0.594c0.408,0.396,0.612,0.908,0.612,1.535
		c0,0.595-0.204,1.089-0.612,1.485c-0.409,0.396-1.101,0.594-2.075,0.594h-1.886L293.217,166.31z"/>
	<path fill="#121706" d="M358.943,145.861h-40.358c0.689,5.382,2.836,9.714,6.436,12.997c3.599,3.284,8.055,4.927,13.367,4.927
		c2.954,0,6.051-0.512,9.288-1.534c3.236-1.023,5.878-2.377,7.921-4.062c0.597-0.495,1.116-0.742,1.557-0.742
		c0.502,0,0.942,0.206,1.32,0.618c0.377,0.413,0.564,0.9,0.564,1.461c0,0.563-0.252,1.106-0.755,1.635
		c-1.509,1.65-4.188,3.192-8.038,4.63c-3.852,1.436-7.804,2.152-11.857,2.152c-6.79,0-12.456-2.335-16.997-7.006
		c-4.543-4.67-6.813-10.322-6.813-16.958c0-6.04,2.129-11.222,6.39-15.546c4.259-4.324,9.53-6.486,15.817-6.486
		c6.477,0,11.804,2.221,15.984,6.659C356.947,133.046,359.006,138.798,358.943,145.861z M354.935,141.652
		c-0.785-4.587-2.854-8.316-6.199-11.188c-3.348-2.871-7.332-4.308-11.953-4.308c-4.62,0-8.597,1.42-11.929,4.259
		s-5.406,6.585-6.224,11.237H354.935z"/>
	<path fill="#121706" d="M380.539,104.172v27.578c4.777-6.535,10.546-9.803,17.305-9.803c5.783,0,10.732,2.202,14.852,6.608
		c4.118,4.407,6.177,9.813,6.177,16.216c0,6.471-2.082,11.949-6.246,16.438c-4.165,4.489-9.094,6.732-14.781,6.732
		c-6.916,0-12.685-3.268-17.305-9.803v8.169h-9.289c-0.941,0-1.618-0.198-2.026-0.594c-0.408-0.396-0.612-0.892-0.612-1.485
		c0-0.627,0.204-1.131,0.612-1.511c0.408-0.379,1.085-0.569,2.026-0.569h5.328v-53.77h-5.328c-0.941,0-1.618-0.198-2.026-0.594
		c-0.408-0.396-0.612-0.907-0.612-1.535c0-0.594,0.204-1.089,0.612-1.485c0.408-0.396,1.085-0.594,2.026-0.594H380.539z
		 M414.911,144.97c0-5.248-1.714-9.695-5.14-13.343c-3.427-3.647-7.435-5.472-12.023-5.472c-4.59,0-8.597,1.823-12.021,5.472
		c-3.427,3.646-5.14,8.095-5.14,13.343c0,5.249,1.713,9.697,5.14,13.344c3.426,3.647,7.433,5.472,12.021,5.472
		c4.59,0,8.598-1.823,12.023-5.472C413.197,154.667,414.911,150.219,414.911,144.97z"/>
</g>
<g>
	<path fill="#121706" d="M41.425,217.535c0,0.094-0.029,0.176-0.089,0.246c-0.06,0.069-0.165,0.126-0.313,0.167
		c-0.15,0.041-0.34,0.075-0.572,0.104s-0.534,0.044-0.907,0.044c-0.344,0-0.639-0.015-0.886-0.044s-0.44-0.063-0.583-0.104
		s-0.243-0.098-0.303-0.167c-0.061-0.07-0.089-0.152-0.089-0.246v-19.812h-0.043l-9.924,19.898
		c-0.043,0.082-0.104,0.151-0.185,0.211c-0.08,0.059-0.196,0.107-0.348,0.148c-0.152,0.041-0.334,0.07-0.544,0.088
		c-0.21,0.019-0.46,0.026-0.75,0.026c-0.306,0-0.566-0.012-0.784-0.035c-0.218-0.022-0.399-0.056-0.544-0.097
		c-0.146-0.041-0.258-0.091-0.337-0.149c-0.08-0.059-0.135-0.123-0.163-0.192l-9.488-19.898H14.55v19.812
		c0,0.094-0.029,0.176-0.09,0.246c-0.06,0.069-0.164,0.126-0.313,0.167s-0.345,0.075-0.583,0.104
		c-0.239,0.029-0.545,0.044-0.919,0.044c-0.358,0-0.657-0.015-0.896-0.044s-0.429-0.063-0.572-0.104
		c-0.142-0.041-0.238-0.098-0.291-0.167c-0.053-0.07-0.077-0.152-0.077-0.246v-20.918c0-0.492,0.162-0.845,0.485-1.056
		c0.324-0.211,0.686-0.315,1.083-0.315h2.298c0.472,0,0.885,0.035,1.237,0.104c0.354,0.07,0.663,0.183,0.928,0.334
		c0.266,0.152,0.486,0.347,0.663,0.58c0.178,0.234,0.332,0.51,0.464,0.826l8.053,16.471h0.108l8.378-16.418
		c0.162-0.352,0.34-0.649,0.53-0.896c0.192-0.246,0.402-0.442,0.63-0.589c0.229-0.147,0.483-0.252,0.764-0.316
		c0.279-0.063,0.604-0.097,0.973-0.097h2.41c0.221,0,0.431,0.025,0.63,0.079c0.199,0.053,0.369,0.135,0.509,0.246
		c0.14,0.11,0.254,0.252,0.343,0.422s0.132,0.378,0.132,0.624V217.535z"/>
	<path fill="#121706" d="M74.542,209.59c0,1.383-0.25,2.616-0.75,3.7s-1.215,2.001-2.144,2.751s-2.061,1.317-3.396,1.705
		c-1.335,0.387-2.851,0.58-4.548,0.58c-1.553,0-2.967-0.183-4.244-0.545c-1.276-0.363-2.372-0.899-3.286-1.608
		c-0.913-0.709-1.617-1.597-2.11-2.663c-0.494-1.066-0.74-2.297-0.74-3.691v-14.114c0-0.095,0.029-0.177,0.087-0.246
		c0.059-0.07,0.159-0.126,0.305-0.167s0.333-0.076,0.565-0.105c0.232-0.028,0.537-0.044,0.914-0.044
		c0.348,0,0.646,0.016,0.892,0.044c0.246,0.029,0.439,0.064,0.577,0.105c0.139,0.041,0.236,0.097,0.294,0.167
		c0.059,0.069,0.087,0.151,0.087,0.246v13.746c0,1.055,0.16,1.975,0.479,2.76c0.318,0.785,0.78,1.438,1.382,1.96
		c0.602,0.521,1.327,0.914,2.176,1.178c0.85,0.264,1.802,0.396,2.861,0.396c1.088,0,2.057-0.129,2.905-0.388
		c0.848-0.258,1.566-0.645,2.153-1.159c0.587-0.516,1.037-1.154,1.35-1.916c0.312-0.763,0.468-1.652,0.468-2.673v-13.903
		c0-0.095,0.029-0.177,0.087-0.246c0.058-0.07,0.159-0.126,0.305-0.167s0.337-0.076,0.577-0.105c0.239-0.028,0.54-0.044,0.903-0.044
		c0.348,0,0.642,0.016,0.881,0.044c0.239,0.029,0.428,0.064,0.566,0.105c0.138,0.041,0.238,0.097,0.305,0.167
		c0.064,0.069,0.098,0.151,0.098,0.246L74.542,209.59L74.542,209.59z"/>
	<path fill="#121706" d="M101.217,196.547c0,0.223-0.015,0.416-0.043,0.58s-0.079,0.296-0.151,0.396
		c-0.073,0.101-0.156,0.173-0.25,0.221c-0.095,0.047-0.193,0.069-0.294,0.069H90.162v7.734h9.749c0.103,0,0.199,0.021,0.294,0.062
		c0.094,0.041,0.177,0.108,0.25,0.202s0.123,0.221,0.152,0.378c0.029,0.158,0.043,0.36,0.043,0.606c0,0.223-0.016,0.413-0.043,0.571
		c-0.029,0.157-0.08,0.286-0.152,0.387c-0.072,0.1-0.156,0.176-0.25,0.229c-0.095,0.054-0.191,0.079-0.294,0.079h-9.749v9.476
		c0,0.082-0.029,0.161-0.087,0.236c-0.058,0.076-0.16,0.136-0.305,0.177c-0.146,0.041-0.334,0.075-0.566,0.104
		c-0.231,0.029-0.537,0.044-0.914,0.044c-0.348,0-0.646-0.015-0.892-0.044c-0.247-0.029-0.443-0.063-0.587-0.104
		c-0.146-0.041-0.247-0.101-0.306-0.177c-0.058-0.075-0.087-0.154-0.087-0.236v-21.06c0-0.457,0.148-0.775,0.446-0.958
		c0.298-0.182,0.613-0.271,0.947-0.271h12.665c0.101,0,0.198,0.022,0.294,0.069c0.094,0.048,0.177,0.123,0.25,0.229
		c0.071,0.104,0.123,0.243,0.151,0.413C101.202,196.128,101.217,196.324,101.217,196.547z"/>
	<path fill="#121706" d="M127.021,216.744c0,0.211-0.016,0.396-0.043,0.554c-0.029,0.158-0.08,0.29-0.152,0.396
		c-0.073,0.105-0.156,0.183-0.25,0.229s-0.2,0.07-0.314,0.07h-13.515c-0.334,0-0.648-0.092-0.947-0.272
		c-0.298-0.181-0.445-0.501-0.445-0.958v-20.285c0-0.457,0.147-0.775,0.445-0.958c0.299-0.182,0.613-0.271,0.947-0.271h13.361
		c0.116,0,0.221,0.022,0.314,0.069c0.095,0.048,0.17,0.123,0.229,0.229c0.059,0.105,0.104,0.237,0.142,0.396
		c0.036,0.158,0.055,0.354,0.055,0.59c0,0.211-0.019,0.396-0.055,0.554c-0.037,0.158-0.083,0.287-0.142,0.387
		c-0.06,0.101-0.134,0.173-0.229,0.22c-0.095,0.048-0.199,0.07-0.314,0.07h-11.011v7.137h9.443c0.116,0,0.222,0.026,0.315,0.079
		c0.094,0.054,0.174,0.126,0.24,0.221c0.064,0.094,0.111,0.223,0.141,0.387s0.043,0.356,0.043,0.58c0,0.211-0.014,0.393-0.043,0.545
		s-0.076,0.274-0.141,0.369c-0.065,0.094-0.146,0.161-0.24,0.202s-0.199,0.062-0.315,0.062h-9.443v8.139h11.164
		c0.115,0,0.221,0.023,0.314,0.07s0.178,0.12,0.25,0.22c0.072,0.101,0.123,0.229,0.152,0.388
		C127.007,216.313,127.021,216.51,127.021,216.744z"/>
	<path fill="#121706" d="M158.854,216.744c0,0.233-0.049,0.434-0.146,0.598s-0.225,0.299-0.383,0.404
		c-0.158,0.104-0.334,0.182-0.529,0.229c-0.194,0.047-0.39,0.07-0.585,0.07h-1.236c-0.392,0-0.732-0.032-1.024-0.097
		c-0.292-0.065-0.57-0.183-0.833-0.353s-0.525-0.401-0.788-0.694c-0.262-0.293-0.541-0.668-0.835-1.125l-8.59-12.938
		c-0.449-0.668-0.902-1.368-1.358-2.101c-0.457-0.732-0.881-1.444-1.273-2.137h-0.043c0.028,0.845,0.051,1.705,0.064,2.584
		c0.015,0.879,0.021,1.752,0.021,2.619v13.729c0,0.082-0.031,0.16-0.092,0.236c-0.062,0.076-0.165,0.136-0.311,0.177
		c-0.145,0.041-0.336,0.075-0.574,0.104c-0.237,0.029-0.54,0.044-0.906,0.044c-0.368,0-0.67-0.015-0.907-0.044
		s-0.425-0.063-0.563-0.104c-0.138-0.041-0.236-0.101-0.298-0.177s-0.092-0.154-0.092-0.236v-20.988
		c0-0.469,0.165-0.803,0.494-1.002c0.33-0.199,0.688-0.299,1.079-0.299h1.842c0.434,0,0.797,0.028,1.089,0.088
		c0.292,0.059,0.554,0.155,0.786,0.29s0.457,0.321,0.674,0.563s0.445,0.542,0.685,0.905l6.604,9.984
		c0.407,0.608,0.799,1.203,1.178,1.783c0.378,0.58,0.743,1.151,1.094,1.715c0.35,0.563,0.697,1.115,1.042,1.66
		c0.343,0.545,0.683,1.094,1.02,1.645h0.021c-0.029-0.926-0.048-1.89-0.055-2.893c-0.007-1.002-0.011-1.966-0.011-2.892v-12.34
		c0-0.082,0.03-0.158,0.092-0.229c0.062-0.069,0.164-0.132,0.311-0.185c0.146-0.053,0.337-0.091,0.573-0.114
		c0.237-0.022,0.548-0.035,0.931-0.035c0.336,0,0.627,0.013,0.873,0.035c0.245,0.023,0.436,0.063,0.573,0.114
		c0.139,0.053,0.237,0.114,0.299,0.185c0.061,0.071,0.092,0.146,0.092,0.229v20.99H158.854z"/>
	<path fill="#121706" d="M191.948,198.34c0,0.223-0.015,0.419-0.043,0.589c-0.029,0.17-0.073,0.312-0.131,0.422
		c-0.059,0.111-0.13,0.19-0.217,0.237s-0.183,0.07-0.283,0.07c-0.174,0-0.464-0.111-0.871-0.334c-0.407-0.224-0.95-0.47-1.632-0.738
		c-0.683-0.271-1.498-0.517-2.448-0.738s-2.078-0.334-3.384-0.334c-1.553,0-2.945,0.229-4.178,0.687
		c-1.233,0.457-2.278,1.09-3.135,1.897c-0.855,0.809-1.512,1.771-1.969,2.883c-0.457,1.113-0.686,2.32-0.686,3.621
		c0,1.453,0.25,2.742,0.751,3.867s1.192,2.074,2.077,2.848c0.886,0.773,1.94,1.359,3.166,1.759c1.227,0.398,2.571,0.598,4.037,0.598
		c0.87,0,1.751-0.085,2.645-0.255c0.892-0.17,1.722-0.425,2.491-0.766v-6.627h-6.528c-0.247,0-0.432-0.1-0.555-0.299
		c-0.124-0.199-0.186-0.51-0.186-0.932c0-0.223,0.015-0.413,0.043-0.571c0.029-0.158,0.076-0.287,0.143-0.387
		c0.065-0.101,0.142-0.173,0.229-0.22c0.087-0.048,0.196-0.07,0.326-0.07h8.944c0.159,0,0.318,0.022,0.479,0.07
		c0.16,0.047,0.305,0.116,0.436,0.211c0.131,0.094,0.231,0.223,0.305,0.387s0.108,0.352,0.108,0.563v8.666
		c0,0.306-0.064,0.568-0.195,0.791c-0.131,0.224-0.406,0.419-0.827,0.59c-0.421,0.17-0.965,0.354-1.632,0.554
		c-0.667,0.199-1.357,0.369-2.067,0.51c-0.711,0.141-1.429,0.246-2.154,0.316c-0.726,0.069-1.443,0.104-2.153,0.104
		c-2.176,0-4.121-0.271-5.832-0.816c-1.712-0.545-3.159-1.321-4.341-2.329c-1.184-1.008-2.086-2.215-2.709-3.621
		c-0.624-1.406-0.937-2.978-0.937-4.711c0-1.806,0.337-3.439,1.012-4.904c0.676-1.465,1.625-2.713,2.852-3.744
		c1.226-1.031,2.699-1.831,4.417-2.398c1.719-0.568,3.624-0.854,5.712-0.854c1.074,0,2.082,0.076,3.024,0.229
		c0.943,0.151,1.781,0.331,2.515,0.535c0.731,0.205,1.349,0.429,1.85,0.669c0.501,0.239,0.846,0.437,1.034,0.589
		c0.188,0.151,0.319,0.328,0.392,0.526C191.912,197.678,191.948,197.965,191.948,198.34z"/>
	<path fill="#121706" d="M239.183,216.744c0,0.233-0.05,0.434-0.146,0.598s-0.225,0.299-0.382,0.404
		c-0.158,0.104-0.334,0.182-0.529,0.229c-0.194,0.047-0.39,0.07-0.585,0.07h-1.237c-0.391,0-0.731-0.032-1.023-0.097
		c-0.293-0.064-0.57-0.183-0.833-0.353s-0.525-0.401-0.788-0.694s-0.541-0.668-0.836-1.125l-8.59-12.938
		c-0.449-0.668-0.901-1.368-1.358-2.101c-0.456-0.732-0.881-1.444-1.272-2.137h-0.044c0.028,0.845,0.051,1.705,0.064,2.584
		c0.015,0.879,0.022,1.752,0.022,2.619v13.729c0,0.082-0.031,0.16-0.092,0.236c-0.063,0.076-0.165,0.136-0.312,0.177
		c-0.146,0.041-0.337,0.075-0.574,0.104c-0.236,0.029-0.54,0.044-0.906,0.044c-0.367,0-0.671-0.015-0.907-0.044
		c-0.237-0.029-0.425-0.063-0.563-0.104c-0.138-0.041-0.236-0.101-0.298-0.177s-0.092-0.154-0.092-0.236v-20.988
		c0-0.469,0.164-0.803,0.494-1.002c0.329-0.199,0.688-0.299,1.078-0.299h1.842c0.434,0,0.797,0.028,1.089,0.088
		c0.292,0.059,0.555,0.155,0.786,0.29s0.457,0.321,0.674,0.563s0.445,0.542,0.684,0.905l6.604,9.984
		c0.407,0.608,0.8,1.203,1.178,1.783c0.379,0.58,0.743,1.151,1.094,1.715c0.352,0.563,0.698,1.115,1.041,1.66
		c0.345,0.545,0.685,1.094,1.021,1.645h0.021c-0.028-0.926-0.047-1.89-0.055-2.893c-0.007-1.002-0.011-1.966-0.011-2.892v-12.34
		c0-0.082,0.031-0.158,0.092-0.229c0.063-0.069,0.164-0.132,0.31-0.185c0.146-0.053,0.339-0.091,0.575-0.114
		c0.237-0.022,0.547-0.035,0.931-0.035c0.337,0,0.628,0.013,0.872,0.035c0.244,0.023,0.437,0.063,0.573,0.114
		c0.138,0.052,0.237,0.114,0.299,0.185c0.063,0.071,0.093,0.146,0.093,0.229v20.99H239.183z"/>
	<path fill="#121706" d="M266.793,216.744c0,0.211-0.015,0.396-0.044,0.554c-0.028,0.158-0.079,0.29-0.151,0.396
		s-0.155,0.183-0.25,0.229c-0.096,0.047-0.199,0.07-0.315,0.07h-13.514c-0.334,0-0.649-0.092-0.946-0.272
		c-0.298-0.182-0.446-0.501-0.446-0.958v-20.285c0-0.457,0.148-0.775,0.446-0.958c0.297-0.182,0.612-0.271,0.946-0.271h13.36
		c0.116,0,0.222,0.022,0.315,0.069c0.094,0.048,0.171,0.123,0.229,0.229c0.059,0.105,0.105,0.237,0.143,0.396
		c0.037,0.159,0.055,0.354,0.055,0.59c0,0.211-0.019,0.396-0.055,0.554s-0.084,0.287-0.143,0.387
		c-0.058,0.101-0.134,0.173-0.229,0.22c-0.095,0.048-0.199,0.07-0.315,0.07h-11.011v7.137h9.444c0.114,0,0.221,0.026,0.314,0.079
		c0.095,0.054,0.174,0.126,0.239,0.221c0.065,0.094,0.112,0.223,0.142,0.387c0.028,0.164,0.043,0.356,0.043,0.58
		c0,0.211-0.015,0.393-0.043,0.545s-0.075,0.274-0.142,0.369c-0.066,0.094-0.146,0.161-0.239,0.202
		c-0.095,0.041-0.2,0.062-0.314,0.062h-9.444v8.139h11.163c0.116,0,0.221,0.023,0.315,0.07c0.094,0.047,0.178,0.12,0.25,0.22
		c0.072,0.101,0.122,0.229,0.151,0.388C266.777,216.318,266.793,216.51,266.793,216.744z"/>
	<path fill="#121706" d="M294.993,196.547c0,0.223-0.015,0.416-0.044,0.58s-0.076,0.296-0.142,0.396
		c-0.066,0.101-0.146,0.173-0.239,0.221c-0.094,0.047-0.199,0.069-0.315,0.069h-7.921v19.724c0,0.094-0.028,0.176-0.087,0.246
		c-0.059,0.069-0.16,0.126-0.305,0.167c-0.146,0.041-0.338,0.075-0.577,0.104s-0.54,0.044-0.903,0.044
		c-0.348,0-0.646-0.015-0.892-0.044c-0.247-0.029-0.442-0.063-0.588-0.104s-0.247-0.098-0.306-0.167
		c-0.058-0.07-0.087-0.152-0.087-0.246v-19.724h-7.921c-0.116,0-0.222-0.022-0.314-0.069c-0.096-0.047-0.171-0.12-0.229-0.221
		c-0.059-0.1-0.104-0.23-0.142-0.396s-0.056-0.357-0.056-0.58s0.02-0.419,0.056-0.589s0.083-0.309,0.142-0.413
		c0.059-0.105,0.134-0.182,0.229-0.229c0.094-0.047,0.198-0.069,0.314-0.069h19.585c0.116,0,0.222,0.022,0.315,0.069
		c0.094,0.048,0.174,0.123,0.239,0.229c0.064,0.105,0.111,0.243,0.142,0.413S294.993,196.324,294.993,196.547z"/>
	<path fill="#121706" d="M330.48,217.324c-0.058,0.164-0.146,0.296-0.261,0.396c-0.116,0.1-0.276,0.176-0.479,0.229
		c-0.203,0.053-0.453,0.091-0.75,0.113c-0.298,0.023-0.664,0.035-1.1,0.035c-0.449,0-0.83-0.012-1.144-0.035
		c-0.312-0.022-0.568-0.062-0.771-0.113c-0.203-0.053-0.355-0.13-0.457-0.229s-0.182-0.23-0.239-0.396l-5.896-17.175h-0.043
		l-5.44,17.175c-0.044,0.164-0.116,0.296-0.218,0.396c-0.103,0.1-0.247,0.176-0.436,0.229c-0.188,0.053-0.433,0.091-0.729,0.113
		c-0.298,0.023-0.679,0.035-1.144,0.035c-0.479,0-0.878-0.012-1.195-0.035c-0.319-0.022-0.581-0.062-0.784-0.113
		c-0.203-0.053-0.358-0.13-0.468-0.229c-0.108-0.1-0.186-0.23-0.229-0.396l-7.441-21.007c-0.087-0.27-0.135-0.479-0.143-0.633
		c-0.007-0.151,0.051-0.27,0.175-0.352c0.123-0.082,0.322-0.135,0.6-0.158c0.274-0.023,0.645-0.035,1.108-0.035
		c0.449,0,0.806,0.009,1.066,0.026s0.46,0.05,0.599,0.097s0.231,0.111,0.282,0.193s0.091,0.188,0.12,0.315l6.332,19.056h0.022
		l6.006-19.021c0.044-0.129,0.098-0.237,0.163-0.325c0.064-0.088,0.171-0.154,0.314-0.201c0.146-0.048,0.353-0.082,0.62-0.105
		s0.62-0.035,1.056-0.035c0.406,0,0.729,0.012,0.97,0.035c0.239,0.023,0.431,0.059,0.575,0.105c0.146,0.047,0.25,0.113,0.315,0.201
		s0.12,0.196,0.163,0.325l6.464,19.021h0.043l6.202-19.037c0.044-0.117,0.087-0.221,0.131-0.309
		c0.043-0.088,0.134-0.154,0.271-0.201c0.137-0.048,0.334-0.082,0.588-0.105s0.591-0.035,1.012-0.035
		c0.436,0,0.779,0.016,1.034,0.044c0.253,0.029,0.438,0.085,0.555,0.167c0.115,0.082,0.17,0.199,0.163,0.353
		c-0.008,0.151-0.048,0.362-0.12,0.633L330.48,217.324z"/>
	<path fill="#121706" d="M371.213,206.355c0,1.84-0.27,3.498-0.806,4.976c-0.537,1.477-1.339,2.732-2.404,3.771
		c-1.066,1.038-2.404,1.834-4.016,2.392c-1.611,0.557-3.489,0.835-5.636,0.835c-2.119,0-3.95-0.255-5.495-0.766
		c-1.545-0.51-2.822-1.251-3.83-2.224c-1.009-0.973-1.759-2.18-2.252-3.621s-0.74-3.1-0.74-4.975c0-1.793,0.27-3.423,0.807-4.888
		c0.536-1.465,1.341-2.71,2.415-3.734c1.072-1.025,2.416-1.816,4.024-2.373c1.61-0.558,3.489-0.835,5.638-0.835
		c2.073,0,3.881,0.252,5.419,0.756c1.536,0.504,2.816,1.239,3.841,2.206c1.021,0.967,1.784,2.162,2.284,3.586
		C370.963,202.884,371.213,204.516,371.213,206.355z M367.253,206.566c0-1.289-0.143-2.486-0.426-3.595
		c-0.281-1.106-0.753-2.068-1.412-2.883c-0.658-0.815-1.539-1.45-2.641-1.907s-2.464-0.686-4.086-0.686
		c-1.623,0-2.985,0.246-4.086,0.737c-1.102,0.492-1.996,1.148-2.685,1.97c-0.688,0.819-1.182,1.777-1.479,2.874
		c-0.298,1.096-0.445,2.247-0.445,3.453c0,1.337,0.138,2.566,0.412,3.691c0.275,1.125,0.739,2.095,1.393,2.909
		c0.652,0.813,1.523,1.447,2.619,1.897c1.094,0.451,2.466,0.678,4.117,0.678c1.638,0,3.015-0.246,4.13-0.738
		s2.015-1.157,2.694-1.995s1.167-1.808,1.456-2.909C367.107,208.963,367.253,207.797,367.253,206.566z"/>
	<path fill="#121706" d="M400.369,217.535c0,0.094-0.021,0.176-0.063,0.246c-0.044,0.069-0.14,0.129-0.283,0.176
		c-0.146,0.047-0.349,0.082-0.609,0.104c-0.26,0.023-0.608,0.035-1.045,0.035c-0.377,0-0.686-0.012-0.925-0.035
		c-0.239-0.022-0.432-0.062-0.576-0.113c-0.146-0.054-0.258-0.126-0.338-0.221c-0.079-0.094-0.147-0.211-0.206-0.352l-2.59-5.361
		c-0.305-0.608-0.62-1.169-0.946-1.679s-0.715-0.949-1.165-1.318c-0.448-0.369-0.979-0.656-1.588-0.86
		c-0.608-0.205-1.342-0.309-2.197-0.309h-2.503v9.687c0,0.094-0.032,0.176-0.099,0.246c-0.066,0.069-0.167,0.126-0.305,0.167
		c-0.139,0.041-0.326,0.075-0.565,0.104s-0.541,0.044-0.902,0.044c-0.362,0-0.663-0.015-0.903-0.044
		c-0.239-0.029-0.433-0.063-0.576-0.104c-0.146-0.041-0.247-0.098-0.305-0.167c-0.06-0.07-0.087-0.152-0.087-0.246v-21.06
		c0-0.457,0.147-0.775,0.445-0.958c0.297-0.182,0.612-0.271,0.946-0.271h5.984c0.711,0,1.302,0.015,1.772,0.044
		c0.472,0.028,0.896,0.062,1.273,0.097c1.088,0.152,2.049,0.394,2.883,0.721c0.834,0.328,1.534,0.744,2.101,1.248
		c0.565,0.504,0.989,1.081,1.272,1.731c0.283,0.649,0.425,1.368,0.425,2.153c0,0.762-0.128,1.443-0.381,2.048
		c-0.254,0.604-0.62,1.137-1.1,1.6s-1.053,0.864-1.72,1.204c-0.668,0.34-1.414,0.627-2.24,0.861
		c0.464,0.164,0.885,0.372,1.262,0.624s0.729,0.554,1.056,0.904c0.327,0.352,0.635,0.756,0.925,1.213s0.58,0.974,0.87,1.548
		l2.524,5.01c0.203,0.422,0.334,0.718,0.392,0.888C400.341,217.31,400.369,217.441,400.369,217.535z M394.733,201.557
		c0-0.891-0.247-1.644-0.74-2.259c-0.492-0.615-1.319-1.058-2.479-1.327c-0.362-0.082-0.772-0.141-1.229-0.176
		s-1.056-0.053-1.795-0.053h-3.154v7.664h3.654c0.986,0,1.839-0.098,2.558-0.29c0.719-0.193,1.316-0.464,1.796-0.81
		c0.479-0.346,0.83-0.753,1.056-1.222C394.621,202.617,394.733,202.107,394.733,201.557z"/>
	<path fill="#121706" d="M428.611,217.5c0,0.094-0.024,0.179-0.076,0.255c-0.051,0.076-0.147,0.138-0.294,0.185
		c-0.145,0.047-0.341,0.085-0.587,0.114c-0.247,0.029-0.565,0.044-0.958,0.044c-0.508,0-0.921-0.018-1.24-0.053
		c-0.318-0.035-0.559-0.101-0.718-0.193c-0.16-0.094-0.291-0.199-0.393-0.315l-10.357-11.373v11.373
		c0,0.082-0.028,0.161-0.088,0.236c-0.058,0.076-0.159,0.136-0.305,0.177s-0.337,0.075-0.576,0.104s-0.541,0.044-0.903,0.044
		c-0.348,0-0.646-0.015-0.892-0.044c-0.247-0.029-0.443-0.063-0.588-0.104c-0.146-0.041-0.247-0.101-0.306-0.177
		c-0.059-0.075-0.087-0.154-0.087-0.236v-21.832c0-0.095,0.028-0.177,0.087-0.246c0.059-0.07,0.159-0.126,0.306-0.167
		c0.145-0.041,0.341-0.076,0.588-0.105c0.246-0.028,0.544-0.044,0.892-0.044c0.362,0,0.664,0.016,0.903,0.044
		c0.239,0.029,0.432,0.064,0.576,0.105c0.146,0.041,0.247,0.097,0.305,0.167c0.06,0.069,0.088,0.151,0.088,0.246v10.106
		l9.966-10.106c0.089-0.105,0.188-0.193,0.306-0.265c0.117-0.07,0.258-0.126,0.425-0.167c0.166-0.041,0.37-0.072,0.609-0.097
		c0.238-0.024,0.547-0.035,0.925-0.035c0.377,0,0.682,0.016,0.914,0.044c0.23,0.029,0.417,0.067,0.555,0.114
		s0.231,0.104,0.283,0.176c0.051,0.07,0.076,0.146,0.076,0.229c0,0.151-0.049,0.305-0.143,0.457
		c-0.095,0.151-0.271,0.362-0.533,0.633l-9.336,9.018l10.055,10.793c0.247,0.306,0.396,0.514,0.445,0.624
		C428.586,217.34,428.611,217.43,428.611,217.5z"/>
</g>
</svg>
